HIERARCHY
ROOT Hips
{
	OFFSET -0.001795 -0.223333 0.028219
	CHANNELS 6 Xposition Yposition Zposition Zrotation Yrotation Xrotation 
	JOINT LeftUpLeg
	{
		OFFSET 0.069520 -0.091406 -0.006815
		CHANNELS 3 Zrotation Yrotation Xrotation
		JOINT LeftLeg
		{
			OFFSET 0.034277 -0.375199 -0.004496
			CHANNELS 3 Zrotation Yrotation Xrotation
			JOINT LeftFoot
			{
				OFFSET -0.013596 -0.397961 -0.043693
				CHANNELS 3 Zrotation Yrotation Xrotation
				JOINT LeftToe
				{
					OFFSET 0.026358 -0.055791 0.119288
					CHANNELS 3 Zrotation Yrotation Xrotation
					End Site
					{
						OFFSET 0.000000 0.000000 0.000000
					}
				}
			}
		}
	}
	JOINT RightUpLeg
	{
		OFFSET -0.067670 -0.090522 -0.004320
		CHANNELS 3 Zrotation Yrotation Xrotation
		JOINT RightLeg
		{
			OFFSET -0.038290 -0.382569 -0.008850
			CHANNELS 3 Zrotation Yrotation Xrotation
			JOINT RightFoot
			{
				OFFSET 0.015774 -0.398415 -0.042312
				CHANNELS 3 Zrotation Yrotation Xrotation
				JOINT RightToe
				{
					OFFSET -0.025372 -0.048144 0.123348
					CHANNELS 3 Zrotation Yrotation Xrotation
					End Site
					{
						OFFSET 0.000000 0.000000 0.000000
					}
				}
			}
		}
	}
	JOINT Spine
	{
		OFFSET -0.002533 0.108963 -0.026696
		CHANNELS 3 Zrotation Yrotation Xrotation
		JOINT Spine1
		{
			OFFSET 0.005487 0.135180 0.001092
			CHANNELS 3 Zrotation Yrotation Xrotation
			JOINT Spine2
			{
				OFFSET 0.001457 0.052922 0.025425
				CHANNELS 3 Zrotation Yrotation Xrotation
				JOINT Neck
				{
					OFFSET -0.002778 0.213870 -0.042857
					CHANNELS 3 Zrotation Yrotation Xrotation
					JOINT Head
					{
						OFFSET 0.005152 0.064970 0.051349
						CHANNELS 3 Zrotation Yrotation Xrotation
						End Site
						{
							OFFSET 0.000000 0.000000 0.000000
						}
					}
				}
				JOINT LeftShoulder
				{
					OFFSET 0.078845 0.121749 -0.034090
					CHANNELS 3 Zrotation Yrotation Xrotation
					JOINT LeftArm
					{
						OFFSET 0.090977 0.030469 -0.008868
						CHANNELS 3 Zrotation Yrotation Xrotation
						JOINT LeftForeArm
						{
							OFFSET 0.259612 -0.012772 -0.027456
							CHANNELS 3 Zrotation Yrotation Xrotation
							JOINT LeftHand
							{
								OFFSET 0.249234 0.008986 -0.001171
								CHANNELS 3 Zrotation Yrotation Xrotation
								End Site
								{
									OFFSET 0.000000 0.000000 0.000000
								}
							}
						}
					}
				}
				JOINT RightShoulder
				{
					OFFSET -0.081759 0.118833 -0.038615
					CHANNELS 3 Zrotation Yrotation Xrotation
					JOINT RightArm
					{
						OFFSET -0.096012 0.032551 -0.009143
						CHANNELS 3 Zrotation Yrotation Xrotation
						JOINT RightForeArm
						{
							OFFSET -0.253742 -0.013329 -0.021401
							CHANNELS 3 Zrotation Yrotation Xrotation
							JOINT RightHand
							{
								OFFSET -0.255298 0.007772 -0.005559
								CHANNELS 3 Zrotation Yrotation Xrotation
								End Site
								{
									OFFSET 0.000000 0.000000 0.000000
								}
							}
						}
					}
				}
			}
		}
	}
}
MOTION
Frames: 13
Frame Time: 0.050000
0.000000 0.920922 0.000000 -0.472111 5.384425 -4.923953 -0.463812 0.317021 3.562549 -4.422676 0.237379 20.455248 9.200984 19.120434 9.188406 0.000000 0.000000 0.000000 -1.131576 1.673159 -20.373478 2.776331 -0.261085 12.072016 -4.737268 -13.364646 14.788244 0.000000 0.000000 0.000000 6.709643 -1.387202 13.382206 -7.010432 2.637266 -20.389807 -6.287649 -2.248144 31.967594 15.664074 -10.338585 -18.062018 0.000000 0.000000 0.000000 -11.735628 -2.470504 0.605051 -52.438832 2.580421 -10.361946 -47.405239 -31.387065 16.686437 0.000000 0.000000 0.000000 13.359119 -17.203009 -9.093780 35.346722 -33.437881 -13.591263 57.943588 17.821904 9.969539 0.000000 0.000000 0.000000 
0.000233 0.923067 -0.037550 -1.563090 4.404035 -4.681616 0.928113 0.168464 2.304404 -5.402523 0.587755 18.382409 9.140284 18.795258 5.919718 0.000000 0.000000 0.000000 -0.079151 2.030425 -21.892238 2.607373 -0.204713 10.277235 -4.527247 -13.069779 14.227148 0.000000 0.000000 0.000000 6.939257 -1.361246 12.992537 -6.793142 2.571366 -19.871144 -4.994781 -1.689185 31.388730 15.048131 -9.464294 -19.047567 0.000000 0.000000 0.000000 -11.372219 -4.056706 1.299952 -50.443524 1.657838 -9.467708 -49.736975 -31.048507 17.096348 0.000000 0.000000 0.000000 8.805837 -18.817641 -8.908876 36.652270 -35.891215 -14.685856 60.451531 12.214418 6.889919 0.000000 0.000000 0.000000 
0.000049 0.925933 -0.074159 -1.787178 2.013982 -5.287295 1.076510 0.170986 2.234546 -5.956687 0.846597 15.842783 9.580075 19.561028 5.403834 0.000000 0.000000 0.000000 -0.281321 2.061139 -21.548395 4.056050 -0.458884 13.061610 -5.739925 -15.257270 10.886714 0.000000 0.000000 0.000000 8.008415 -1.387424 12.683082 -7.098702 2.696908 -18.191167 -6.691912 -1.889964 31.522117 12.125915 -7.486817 -19.573451 0.000000 0.000000 0.000000 -13.476746 -3.734189 1.433828 -48.357166 1.496778 -9.139392 -43.665687 -35.791594 17.571632 0.000000 0.000000 0.000000 7.790107 -18.198841 -8.490825 34.388574 -35.300850 -13.681767 63.457662 11.373007 6.140463 0.000000 0.000000 0.000000 
0.000175 0.927389 -0.109216 -1.570476 -0.462006 -5.635686 -0.063087 0.122902 1.341907 -5.219017 0.761029 14.279373 10.777074 21.660127 5.895565 0.000000 0.000000 0.000000 -0.440949 2.292204 -23.181078 4.994984 -0.616153 21.657979 -6.617425 -16.954036 8.357692 0.000000 0.000000 0.000000 8.319617 -1.444742 13.384077 -8.102992 2.810963 -20.850013 -6.414400 -1.291559 34.673552 11.040987 -6.934391 -20.392403 0.000000 0.000000 0.000000 -13.210576 -3.788181 1.754946 -47.211293 1.481838 -9.285420 -44.820116 -34.942071 17.860677 0.000000 0.000000 0.000000 7.117080 -18.278750 -8.444834 32.339409 -32.978892 -12.493958 67.535098 10.763711 5.825076 0.000000 0.000000 0.000000 
0.000246 0.930079 -0.144138 -1.863004 -2.664532 -5.919907 0.540749 -0.044309 -0.569659 -6.027787 1.051059 14.220349 11.677307 23.094089 7.709688 0.000000 0.000000 0.000000 -0.743059 2.287688 -22.787379 4.884069 -0.360975 28.695893 -6.384411 -16.572914 7.369008 0.000000 0.000000 0.000000 8.598993 -1.480329 13.889383 -7.389016 2.635062 -19.297220 -7.199722 -0.480574 32.549438 10.849591 -7.200016 -17.698276 0.000000 0.000000 0.000000 -14.369088 -3.929076 1.860316 -45.416457 2.280227 -9.033728 -43.122050 -35.264382 17.175113 0.000000 0.000000 0.000000 7.541170 -16.630741 -7.771823 32.584886 -32.038364 -12.331049 71.301269 12.346797 7.313888 0.000000 0.000000 0.000000 
0.000052 0.931769 -0.178849 -1.745256 -5.087705 -5.972066 0.231916 -0.180512 -2.063223 -5.753287 1.053041 13.033985 12.827199 24.744239 9.637672 0.000000 0.000000 0.000000 -0.837687 2.183107 -21.179290 4.248231 0.381582 35.528596 -6.149330 -16.121338 6.336147 0.000000 0.000000 0.000000 8.726934 -1.401250 13.540308 -7.911423 2.727123 -19.533602 -6.686026 1.039993 32.951791 12.043759 -8.109490 -17.581918 0.000000 0.000000 0.000000 -13.334523 -4.213551 1.999364 -45.741808 2.528798 -9.199981 -40.931843 -34.491032 15.947594 0.000000 0.000000 0.000000 7.250002 -16.111868 -7.448121 32.702610 -30.230285 -12.004306 75.909466 14.404174 9.704708 0.000000 0.000000 0.000000 
-0.000909 0.932843 -0.213643 -1.270378 -6.539713 -6.282740 0.338704 -0.299713 -3.460591 -6.386116 1.228113 11.964674 13.428198 25.354474 11.705868 0.000000 0.000000 0.000000 -2.296312 1.727258 -18.724124 4.787938 0.695269 41.637305 -6.205606 -16.108758 5.210935 0.000000 0.000000 0.000000 8.017936 -1.318257 13.849362 -7.211333 2.485133 -19.375920 -6.485702 1.678637 32.156810 12.105785 -8.228289 -17.055207 0.000000 0.000000 0.000000 -13.647601 -3.344944 1.614932 -44.621234 3.155785 -9.138432 -40.228491 -35.318236 16.040358 0.000000 0.000000 0.000000 6.765972 -15.879197 -7.232921 32.038375 -27.352685 -11.026718 81.863645 17.793583 13.755347 0.000000 0.000000 0.000000 
-0.003553 0.934682 -0.248426 -1.120619 -8.067877 -5.862588 1.125911 -0.408604 -5.328145 -7.132575 1.391631 10.392082 14.025985 25.736992 14.432262 0.000000 0.000000 0.000000 -3.251918 1.315428 -15.383257 4.944061 1.269950 46.398859 -5.898744 -16.586155 12.333393 0.000000 0.000000 0.000000 7.882640 -1.217670 13.118623 -7.013186 2.416064 -18.413203 -5.531429 2.819525 29.988718 11.517560 -7.510518 -17.245003 0.000000 0.000000 0.000000 -12.280323 -2.457423 1.051324 -45.098971 4.979479 -9.566960 -40.154954 -34.047389 15.309552 0.000000 0.000000 0.000000 6.549694 -16.113343 -7.256438 31.124006 -24.442989 -9.858539 85.574685 22.298446 19.163181 0.000000 0.000000 0.000000 
-0.008307 0.934965 -0.283903 -0.693153 -8.776412 -5.725091 1.465822 -0.516491 -7.152215 -7.270513 1.384721 9.142849 14.263245 25.593018 16.954493 0.000000 0.000000 0.000000 -4.497786 0.814214 -10.517412 4.135168 2.121571 48.810268 -3.964933 -14.800140 21.795626 0.000000 0.000000 0.000000 7.220643 -1.114426 12.780446 -6.233132 2.131606 -18.983635 -4.375556 4.531917 30.095181 11.585344 -7.203790 -17.984142 0.000000 0.000000 0.000000 -11.017533 -1.118036 0.258949 -44.454259 6.673064 -9.943248 -42.915851 -33.064847 15.651368 0.000000 0.000000 0.000000 6.659112 -16.915670 -7.571870 31.486681 -21.438882 -9.283122 88.108568 25.969052 24.473105 0.000000 0.000000 0.000000 
-0.015813 0.933218 -0.321991 -0.147852 -9.578205 -5.838079 2.788988 -0.517580 -9.262550 -8.793668 1.723926 8.567411 14.464837 25.334002 19.719512 0.000000 0.000000 0.000000 -5.084710 0.364691 -3.711560 2.281711 2.961378 45.145900 -0.368821 -8.725478 18.545233 0.000000 0.000000 0.000000 7.210695 -1.004900 11.699292 -5.514042 1.910654 -18.005284 -3.972264 6.467136 29.465515 11.339308 -6.892115 -17.172636 0.000000 0.000000 0.000000 -9.282733 -0.430734 -0.183153 -45.272945 9.603258 -11.027270 -43.877159 -33.067924 15.781057 0.000000 0.000000 0.000000 8.395706 -16.007826 -7.432971 30.876710 -17.498580 -8.225393 90.864399 32.161535 33.161730 0.000000 0.000000 0.000000 
-0.025538 0.930173 -0.365181 0.789604 -9.806343 -5.114172 3.169078 -0.621634 -12.216001 -9.065589 1.694334 7.152494 14.411062 24.720090 22.962160 0.000000 0.000000 0.000000 -5.538050 0.086794 3.073231 0.180068 2.633702 33.802626 0.712890 -2.708048 7.555303 0.000000 0.000000 0.000000 7.308942 -0.978656 11.194300 -5.741240 1.971212 -18.015961 -2.275972 8.376096 29.180355 10.748151 -6.118380 -17.394477 0.000000 0.000000 0.000000 -7.911777 0.363222 -0.649197 -44.819794 11.757908 -11.567066 -48.057105 -32.748472 16.736919 0.000000 0.000000 0.000000 8.961025 -15.783945 -7.310115 31.397503 -12.935392 -7.433722 91.208201 35.530873 38.191175 0.000000 0.000000 0.000000 
-0.036465 0.925201 -0.413635 1.146017 -10.258977 -4.542534 4.333336 -0.552092 -15.158814 -8.764751 1.566336 6.030210 13.154744 22.750074 25.777961 0.000000 0.000000 0.000000 -4.844222 -0.062251 6.181664 -1.443509 2.089376 23.725562 -0.021098 0.678286 -1.069442 0.000000 0.000000 0.000000 8.340042 -1.206816 12.778643 -5.562664 1.872678 -19.346286 -1.814465 10.848463 28.498829 10.906964 -5.600976 -18.467601 0.000000 0.000000 0.000000 -7.640771 1.662704 -1.409725 -44.880858 12.636653 -11.855097 -46.897574 -31.500842 15.230773 0.000000 0.000000 0.000000 9.783665 -14.082677 -6.440534 31.517756 -8.340147 -6.583626 90.995317 37.417257 41.532141 0.000000 0.000000 0.000000 
-0.047277 0.921362 -0.463567 1.476985 -9.313994 -4.334807 4.847321 -0.531276 -16.454714 -7.536418 1.123013 2.420715 10.695102 19.813531 27.479338 0.000000 0.000000 0.000000 -3.468654 -0.181877 5.606722 -2.411440 1.709395 17.986365 -0.862023 0.343085 -3.737976 0.000000 0.000000 0.000000 9.807447 -1.614935 15.239225 -5.854678 1.932380 -21.618818 -1.800292 11.137073 28.719427 11.296210 -5.491711 -19.894578 0.000000 0.000000 0.000000 -8.206231 2.780443 -2.048840 -43.118296 12.197490 -11.234580 -47.592020 -30.058302 14.463222 0.000000 0.000000 0.000000 11.053000 -13.384868 -6.161238 29.366237 -2.982025 -5.255644 90.598085 37.535103 41.809976 0.000000 0.000000 0.000000 
